<?xml version="1.0" standalone="no"?>
<!DOCTYPE svg PUBLIC "-//W3C//DTD SVG 20010904//EN"
 "http://www.w3.org/TR/2001/REC-SVG-20010904/DTD/svg10.dtd">
<svg version="1.0" xmlns="http://www.w3.org/2000/svg"
 width="260.000000pt" height="260.000000pt" viewBox="0 0 260.000000 260.000000"
 preserveAspectRatio="xMidYMid meet">
<metadata>
Created by potrace 1.11, written by Peter Selinger 2001-2013
</metadata>
<g transform="translate(0.000000,260.000000) scale(0.100000,-0.100000)"
fill="#000000" stroke="none">
<path d="M237 2291 c-65 -43 -62 -9 -65 -631 -3 -631 -5 -609 67 -657 33 -23
39 -23 332 -23 l299 0 0 -90 0 -90 -90 0 -90 0 0 -35 0 -35 355 0 355 0 0 35
0 35 -90 0 -90 0 0 90 0 90 105 0 105 0 0 35 0 35 -573 0 -574 0 -21 23 c-19
20 -22 35 -22 105 l0 82 595 0 595 0 0 35 0 35 -595 0 -595 0 0 434 c0 412 1
435 19 457 l19 24 772 0 772 0 19 -24 c17 -21 19 -41 19 -227 l0 -204 35 0 35
0 0 193 c0 105 -5 209 -10 229 -6 20 -26 50 -46 67 l-35 31 -787 0 c-749 0
-788 -1 -815 -19z m913 -1401 l0 -90 -105 0 -105 0 0 90 0 90 105 0 105 0 0
-90z"/>
<path d="M1622 1710 c-18 -4 -45 -18 -59 -31 -55 -52 -53 -30 -53 -686 0 -589
1 -609 20 -641 11 -18 34 -41 52 -52 31 -19 51 -20 383 -20 l350 0 37 25 c70
48 69 36 66 710 l-3 600 -23 33 c-48 66 -52 67 -412 69 -179 1 -340 -2 -358
-7z m699 -89 c24 -24 29 -38 29 -75 l0 -46 -387 2 c-434 3 -405 -3 -383 77 18
70 21 70 388 71 l324 0 29 -29z m29 -606 l0 -425 -387 2 -388 3 -3 410 c-1
225 0 416 3 422 3 10 91 13 390 13 l385 0 0 -425z m0 -554 c0 -49 -4 -65 -24
-88 l-24 -28 -336 0 -336 0 -26 26 c-20 21 -27 39 -31 88 l-6 61 392 0 391 0
0 -59z"/>
<path d="M1793 1594 c-3 -9 -2 -24 4 -33 9 -14 34 -16 168 -16 136 0 159 2
168 17 8 12 7 21 -2 32 -20 24 -329 24 -338 0z"/>
<path d="M1919 482 c-47 -39 -16 -122 45 -122 33 0 66 36 66 70 0 60 -64 89
-111 52z"/>
<path d="M1004 1212 c-37 -24 -39 -93 -4 -112 33 -18 78 -12 94 12 34 48 7
108 -47 108 -18 0 -37 -4 -43 -8z"/>
</g>
</svg>
