<?xml version="1.0" standalone="no"?>
<!DOCTYPE svg PUBLIC "-//W3C//DTD SVG 20010904//EN"
 "http://www.w3.org/TR/2001/REC-SVG-20010904/DTD/svg10.dtd">
<svg version="1.0" xmlns="http://www.w3.org/2000/svg"
 width="260.000000pt" height="260.000000pt" viewBox="0 0 260.000000 260.000000"
 preserveAspectRatio="xMidYMid meet">
<metadata>
Created by potrace 1.11, written by Peter Selinger 2001-2013
</metadata>
<g transform="translate(0.000000,260.000000) scale(0.100000,-0.100000)"
fill="#000000" stroke="none">
<path d="M0 1300 l0 -1300 1300 0 1300 0 0 1300 0 1300 -1300 0 -1300 0 0
-1300z m1220 959 c58 -53 123 -112 144 -132 28 -25 52 -37 85 -42 139 -20 274
-90 381 -198 l50 -51 -46 -47 -46 -47 48 -43 c45 -41 123 -113 254 -233 30
-28 102 -94 160 -146 57 -52 121 -111 142 -130 l37 -35 -30 -35 c-51 -59 -251
-282 -269 -300 -3 -3 -36 -41 -75 -85 -38 -44 -79 -89 -90 -101 -11 -12 -34
-37 -50 -55 -17 -19 -86 -96 -154 -172 l-125 -137 -35 32 c-19 18 -40 38 -47
43 -32 28 -222 200 -349 318 -16 15 -41 30 -55 33 -101 23 -280 97 -280 116 0
4 -5 8 -10 8 -6 0 -27 15 -46 32 -20 18 -52 47 -70 64 l-34 30 44 43 c34 33
42 46 33 55 -7 6 -59 54 -117 106 -57 52 -114 104 -126 115 -11 11 -61 56
-110 100 -49 44 -115 105 -147 135 l-57 55 87 96 c72 78 151 166 228 253 135
152 171 192 176 196 3 3 43 48 89 100 47 52 103 115 126 140 24 25 52 58 64
73 l22 28 47 -43 c25 -24 94 -86 151 -139z"/>
<path d="M1019 2392 c-2 -5 -30 -38 -63 -73 -32 -35 -70 -77 -85 -94 -15 -16
-67 -75 -116 -130 -50 -55 -98 -109 -108 -120 -11 -11 -42 -47 -70 -79 -29
-32 -61 -69 -72 -80 -11 -12 -58 -64 -105 -116 -47 -52 -95 -106 -108 -120
l-22 -25 43 -40 c24 -22 88 -80 142 -130 55 -49 107 -97 115 -105 8 -8 62 -58
120 -110 58 -52 106 -98 108 -102 8 -17 30 -6 66 31 l39 40 34 -57 c45 -78
133 -156 221 -199 72 -34 74 -35 185 -31 95 3 119 7 162 28 63 32 95 78 95
137 0 103 -56 142 -292 203 -432 111 -568 219 -568 451 0 183 90 315 258 379
61 23 215 50 290 50 28 0 52 3 52 6 0 6 -1 7 -80 78 -50 45 -120 109 -206 189
-18 16 -33 24 -35 19z"/>
<path d="M1240 1930 c-138 -15 -200 -66 -200 -165 0 -59 20 -97 65 -125 40
-25 132 -60 156 -60 9 0 81 -18 160 -41 347 -98 482 -217 481 -425 -1 -123
-36 -212 -113 -286 -99 -96 -230 -138 -438 -140 -114 -1 -131 -3 -116 -15 10
-7 48 -41 84 -75 37 -35 106 -99 155 -143 49 -44 105 -95 125 -113 l36 -33 30
34 c17 18 66 73 110 123 44 49 98 109 120 133 22 25 49 55 60 67 11 11 49 54
85 95 36 40 90 101 120 134 76 84 185 205 209 234 l21 24 -28 26 c-15 14 -75
69 -132 121 -58 52 -112 102 -120 110 -8 8 -60 55 -115 104 -55 50 -105 95
-110 100 -6 6 -35 34 -64 61 l-52 50 -34 -37 c-18 -21 -37 -38 -42 -38 -4 0
-16 19 -26 43 -39 95 -165 206 -263 232 -62 16 -63 16 -164 5z m710 -1077
c-31 -6 -60 -31 -60 -52 0 -9 7 -28 16 -41 l16 -25 -21 24 c-12 13 -21 31 -21
40 0 28 38 61 68 60 27 -2 27 -2 2 -6z m60 -57 c-1 -23 -27 -63 -35 -54 -3 3
1 11 10 18 18 15 19 42 4 73 -10 21 -10 21 5 3 9 -11 16 -29 16 -40z m-53 -62
c-3 -3 -12 -4 -19 -1 -8 3 -5 6 6 6 11 1 17 -2 13 -5z"/>
</g>
</svg>
